<svg version="1.1" id="Layer_1" xmlns="http://www.w3.org/2000/svg" xmlns:xlink="http://www.w3.org/1999/xlink" x="0px" y="0px" viewBox="0 0 129.959 129.985" enable-background="new 0 0 129.959 129.985" xml:space="preserve"><g id="kSqczJ.tif" opacity="0.4"><g><path fill="currentColor" d="M25.305,29.23c0.203,0.064,0.725,0.184,1.212,0.389c26.328,11.088,52.65,22.188,78.982,33.267 c1.329,0.559,2.238,1.384,2.213,2.873c-0.025,1.504-1.009,2.269-2.341,2.773c-10.176,3.844-20.338,7.726-30.521,11.553 c-0.924,0.347-1.434,0.827-1.785,1.762c-3.825,10.183-7.709,20.345-11.551,30.521c-0.501,1.327-1.242,2.29-2.749,2.383 c-1.312,0.081-2.225-0.659-2.926-2.321c-11.08-26.283-22.16-52.565-33.234-78.85C21.615,31.232,22.728,29.212,25.305,29.23z M97.399,65.536c-22.514-9.491-44.723-18.852-67.233-28.341c9.488,22.508,18.852,44.719,28.344,67.236 c0.309-0.77,0.48-1.176,0.636-1.587c3.12-8.2,6.26-16.393,9.336-24.61c0.515-1.377,1.329-2.201,2.709-2.718 C79.408,72.44,87.6,69.3,95.8,66.179C96.241,66.011,96.676,65.827,97.399,65.536z"></path></g></g></svg>